<svg width="512" height="512" xmlns="http://www.w3.org/2000/svg"> !-->
 <!-- Created with UXWing SVG Editor - https://uxwing.com/svg-icon-editor/ -->


 <g>
  <title>background</title>
  <rect fill="none" id="canvas_background" height="514" width="514" y="-1" x="-1"/>
  <g display="none" overflow="visible" y="0" x="0" height="100%" width="100%" id="canvasGrid">
   <rect fill="url(#gridpattern)" stroke-width="0" y="0" x="0" height="100%" width="100%"/>
  </g>
 </g>
 <g>
  <title>Layer 1</title>
  <style transform="matrix(1.9290121985070527,0,0,1.9290121985070527,0,0) " type="text/css">.st0{fill-rule:evenodd;clip-rule:evenodd;}</style>
  <g id="svg_7">
   <g transform="matrix(1.9290121985070527,0,0,1.9290121985070527,0,0) " id="svg_5">
    <path fill="#ffee82" id="svg_6" d="m120.380531,118.736865c7.2,5.16 18.74,-0.38 23.28,8.6c1.2,2.38 1.46,5.64 0.38,8.23c-0.44,1.04 -1.08,1.97 -1.96,2.68c-0.39,0.31 -0.82,0.59 -1.3,0.83c-5.92,2.94 -12.1,-1.17 -15.37,-6.14c-3.01,-4.58 -4.32,-10.29 -5.03,-14.2l0,0zm50.9,-35.13l-92.75,0c-3.99,0 -7.26,3.27 -7.26,7.26l0,77.78c0,3.99 3.27,7.26 7.26,7.26l72.36,0l-6.27,-5.34l-66.23,0c-0.56,0 -1.05,-0.21 -1.42,-0.59c-0.37,-0.37 -0.59,-0.87 -0.59,-1.42l0,-64.62l-0.03,0l96.79,0l0,29.67l5.4,4.38l0,-47.12c0,-3.99 -3.27,-7.26 -7.26,-7.26l0,0zm-85.84,8.16c-1.98,0 -3.59,1.61 -3.59,3.59c0,1.98 1.61,3.58 3.59,3.58c1.98,0 3.59,-1.61 3.59,-3.58c0,-1.98 -1.61,-3.59 -3.59,-3.59l0,0zm24.31,0c-1.98,0 -3.59,1.61 -3.59,3.59c0,1.98 1.6,3.58 3.59,3.58c1.98,0 3.59,-1.61 3.59,-3.58c0,-1.98 -1.61,-3.59 -3.59,-3.59l0,0zm-12.15,0c-1.98,0 -3.59,1.61 -3.59,3.59c0,1.98 1.61,3.58 3.59,3.58c1.98,0 3.59,-1.61 3.59,-3.58c-0.01,-1.98 -1.61,-3.59 -3.59,-3.59l0,0zm59.3,66.38c4.01,-3.2 7.12,-6.89 9.24,-11.12l25.8,27.21c1.95,1.84 3.05,3.41 1.42,6.23c-0.81,0.83 -1.67,1.28 -2.58,1.34c-0.9,0.06 -1.85,-0.26 -2.84,-0.98l-31.04,-22.68l0,0zm-13.61,-15.79c1.74,-0.93 4.12,-3.23 4.69,-5.74l16.15,8.86c-2.33,4.64 -5.3,8.61 -9.37,11.43c-4.25,-5.7 -6.63,-9.14 -11.47,-14.55l0,0z" class="st0"/>
   </g>
  </g>
 </g>
</svg>