<svg width="512" height="512" xmlns="http://www.w3.org/2000/svg">
 <!-- Created with UXWing SVG Editor - https://uxwing.com/svg-icon-editor/ -->

 <g>
  <title>background</title>
  <rect fill="none" id="canvas_background" height="514" width="514" y="-1" x="-1"/>
  <g display="none" overflow="visible" y="0" x="0" height="100%" width="100%" id="canvasGrid">
   <rect fill="url(#gridpattern)" stroke-width="0" y="0" x="0" height="100%" width="100%"/>
  </g>
 </g>
 <g>
  <title>Layer 1</title>
  <style transform="matrix(1.9290121985070527,0,0,1.9290121985070527,0,0) " type="text/css">.st0{fill-rule:evenodd;clip-rule:evenodd;}</style>
  <style transform="matrix(1.9290121985070527,0,0,1.9290121985070527,0,0) " type="text/css">
   <![CDATA[
	.st0{fill-rule:evenodd;clip-rule:evenodd;}
]]>
  </style>
  <g id="svg_14">
   <g transform="matrix(1.9290121985070527,0,0,1.9290121985070527,0,0) " id="svg_12">
    <path fill="#ffee82" id="svg_13" d="m186.912751,121.310414l3,3c0.79,0.79 0.79,2.08 0,2.87l-2.42,2.42c0.67,1.24 1.17,2.59 1.5,4l3.13,0c1.12,0 2.03,0.91 2.03,2.03l0,4.24c0,1.12 -0.91,2.03 -2.03,2.03l-3.42,0c-0.42,1.38 -1.02,2.69 -1.77,3.88l2.22,2.21c0.79,0.79 0.79,2.08 0,2.87l-3,3c-0.79,0.79 -2.08,0.79 -2.87,0l-2.42,-2.42c-1.24,0.67 -2.58,1.18 -4,1.5l0,3.13c0,1.12 -0.91,2.03 -2.03,2.03l-4.24,0c-1.12,0 -2.03,-0.91 -2.03,-2.03l0,-3.42c-1.38,-0.42 -2.69,-1.02 -3.88,-1.77l-2.21,2.22c-0.79,0.79 -2.08,0.79 -2.87,0l-3,-3c-0.79,-0.79 -0.79,-2.08 0,-2.87l2.42,-2.42c-0.67,-1.24 -1.18,-2.59 -1.5,-4l-3.13,0c-1.12,0 -2.03,-0.91 -2.03,-2.03l0,-4.24c0,-1.12 0.91,-2.03 2.03,-2.03l3.42,0c0.42,-1.38 1.02,-2.69 1.77,-3.88l-2.21,-2.21c-0.79,-0.79 -0.79,-2.08 0,-2.87l3,-3c0.79,-0.79 2.08,-0.79 2.87,0l2.42,2.42c1.24,-0.67 2.59,-1.18 4,-1.5l0,-3.13c0,-1.12 0.91,-2.03 2.03,-2.03l4.24,0c1.12,0 2.03,0.91 2.03,2.03l0,3.41c1.38,0.42 2.69,1.02 3.88,1.77l2.21,-2.21c0.78,-0.79 2.07,-0.79 2.86,0l0,0l0,0zm-112.14,34.91c2.93,-3.08 4.12,-3.47 8.06,-4.19c0,-21.21 0,-41.9 0,-63.1c-9.2,0.9 -8.13,9.41 -8.08,17.32c0.01,1.06 0.02,1.62 0.02,1.88l0,48.09l0,0zm25.67,-43.7l16.4,0l1.27,0l0,1.27l0,51.22l0,1.27l-1.27,0l-16.4,0l-1.27,0l0,-1.27l0,-51.22l0,-1.27l1.27,0l0,0l0,0zm3.31,45.57l3.41,0l0,1.78l-3.41,0l0,-1.78l0,0l0,0zm0,-4.96l3.41,0l0,1.78l-3.41,0l0,-1.78l0,0l0,0zm0,-5.02l3.41,0l0,1.78l-3.41,0l0,-1.78l0,0l0,0zm0,-5.01l5.66,0l0,1.78l-5.66,0l0,-1.78l0,0l0,0zm0,-5.01l3.41,0l0,1.78l-3.41,0l0,-1.78l0,0l0,0zm0,-5.02l3.41,0l0,1.78l-3.41,0l0,-1.78l0,0l0,0zm0,-5.01l3.41,0l0,1.78l-3.41,0l0,-1.78l0,0l0,0zm0,-5.01l3.41,0l0,1.78l-3.41,0l0,-1.78l0,0l0,0zm0,-4.97l5.66,0l0,1.78l-5.66,0l0,-1.78l0,0l0,0zm11.81,-3.03l-13.85,0l0,48.68l13.85,0l0,-48.68l0,0l0,0zm26.2,9.07l0,41.8l-11.7,0l0,-41.8l-0.05,0l0.4,-0.81l4.83,-9.93l0.49,-1.01l0.51,1l5.15,9.93l0.43,0.83l-0.06,0l0,-0.01l0,0zm-9.94,-1.14l8.15,0l-3.24,-6.24l-1.87,0l-3.04,6.24l0,0l0,0zm-45.53,-24.99l86.23,0c0.67,0 1.27,0.27 1.7,0.71c0.44,0.44 0.71,1.04 0.71,1.7l0,6.99l-4.47,0l0,-5.45l-84.17,0l0,51.82l-0.01,0c0,0.72 -0.52,1.34 -1.25,1.45c-13.14,2.03 -13.72,17.6 -0.39,19.83l85.82,0l0,-6.54l4.47,0l0,8.6c0,0.66 -0.27,1.26 -0.71,1.7l-0.01,0.01l0,0c-0.44,0.44 -1.04,0.71 -1.7,0.71l-87.97,0c-3.6,0 -8.6,-2.82 -10.68,-5.8c-2.04,-2.9 -2.77,-6.63 -2.56,-10.97l0,-54.62c0,-1.51 0,-1.67 0,-1.87c-0.06,-9.67 -0.13,-20.12 13.34,-20.35c0.06,-0.01 0.11,-0.01 0.17,-0.01c0.82,0 1.48,0.66 1.48,1.48l0,10.61l0,0l0,0zm86.96,30.88c4.61,0 8.34,3.74 8.34,8.34s-3.74,8.34 -8.34,8.34c-4.61,0 -8.34,-3.74 -8.34,-8.34s3.73,-8.34 8.34,-8.34l0,0l0,0z" class="st0"/>
   </g>
  </g>
 </g>
</svg>