<svg width="512" height="512" xmlns="http://www.w3.org/2000/svg">
 <!-- Created with UXWing SVG Editor - https://uxwing.com/svg-icon-editor/ -->

 <g>
  <title>background</title>
  <rect fill="none" id="canvas_background" height="514" width="514" y="-1" x="-1"/>
  <g display="none" overflow="visible" y="0" x="0" height="100%" width="100%" id="canvasGrid">
   <rect fill="url(#gridpattern)" stroke-width="0" y="0" x="0" height="100%" width="100%"/>
  </g>
 </g>
 <g>
  <title>Layer 1</title>
  <style transform="matrix(1.9290121985070527,0,0,1.9290121985070527,0,0) " type="text/css">
   <![CDATA[
	.st0{fill-rule:evenodd;clip-rule:evenodd;}
]]>
  </style>
  <g id="svg_7">
   <g transform="matrix(1.9290121985070527,0,0,1.9290121985070527,0,0) " id="svg_5">
    <path fill="#ffee82" id="svg_6" d="m74.610401,81.760406l116.2,0c1.84,0 3.34,1.5 3.34,3.34l0,76.98c0,1.84 -1.5,3.34 -3.34,3.34l-116.2,0c-1.84,0 -3.34,-1.5 -3.34,-3.34l0,-76.98c0,-1.84 1.5,-3.34 3.34,-3.34l0,0l0,0l0,0zm78.36,67.73l-16.06,-9.73l0,-6.17l16.06,-9.73l0,7.33l-9.76,5.5l9.76,5.5l0,7.3l0,0l0,0zm9.97,0l16.06,-9.73l0,-6.17l-16.06,-9.73l0,7.33l9.76,5.5l-9.76,5.5l0,7.3l0,0l0,0zm-53.03,-23.75l3.83,3.83c1.01,1.01 1.01,2.66 0,3.66l-3.08,3.08c0.85,1.59 1.5,3.3 1.91,5.1l3.99,0c1.42,0 2.59,1.17 2.59,2.59l0,5.41c0,1.42 -1.17,2.59 -2.59,2.59l-4.36,0c-0.39,1.28 -0.89,2.5 -1.51,3.66l75.51,0c1.62,0 2.95,-1.33 2.95,-2.95l0,-62.76c0,-1.62 -1.32,-2.95 -2.95,-2.95l-106.97,0l0,0l0,0c-1.63,0 -2.96,1.33 -2.95,2.95l0,34.61c1.01,-0.79 2.5,-0.73 3.42,0.21l3.08,3.08c1.59,-0.85 3.3,-1.5 5.1,-1.91l0,-3.99c0,-1.42 1.17,-2.58 2.59,-2.58l5.41,0c1.42,0 2.59,1.17 2.59,2.59l0,4.35c1.76,0.54 3.43,1.3 4.95,2.26l2.82,-2.83c1.02,-1.01 2.66,-1.01 3.67,0l0,0l0,0l0,0zm-17.42,8.32c6.6,0 11.95,5.35 11.95,11.96c0,3.96 -1.92,7.47 -4.89,9.64l-14.12,0c-2.97,-2.17 -4.89,-5.68 -4.89,-9.64c0,-6.61 5.35,-11.96 11.95,-11.96l0,0l0,0l0,0zm-7.57,-28.05l7.67,0c0.59,0 1.07,0.5 1.07,1.07l0,2.18c0,0.58 -0.5,1.07 -1.07,1.07l-7.67,0c-0.58,0 -1.07,-0.48 -1.07,-1.07l0,-2.18c-0.01,-0.59 0.47,-1.07 1.07,-1.07l0,0zm12.7,-11.13l29.68,0c0.59,0 1.07,0.49 1.07,1.07l0,2.18c0,0.59 -0.49,1.07 -1.07,1.07l-29.68,0c-0.59,0 -1.07,-0.48 -1.07,-1.07l0,-2.18c0,-0.59 0.48,-1.07 1.07,-1.07l0,0zm-12.7,0l7.67,0c0.59,0 1.07,0.48 1.07,1.07l0,2.18c0,0.59 -0.48,1.07 -1.07,1.07l-7.67,0c-0.59,0 -1.07,-0.48 -1.07,-1.07l0,-2.18c-0.01,-0.59 0.47,-1.07 1.07,-1.07l0,0zm24.71,11.13l49.25,0c0.59,0 1.07,0.5 1.07,1.07l0,2.18c0,0.57 -0.5,1.07 -1.07,1.07l-49.25,0c-0.58,0 -1.07,-0.48 -1.07,-1.07l0,-2.18c0,-0.59 0.48,-1.07 1.07,-1.07l0,0zm-12.15,0l7.67,0c0.59,0 1.07,0.5 1.07,1.07l0,2.18c0,0.58 -0.5,1.07 -1.07,1.07l-7.67,0c-0.58,0 -1.07,-0.48 -1.07,-1.07l0,-2.18c-0.01,-0.59 0.48,-1.07 1.07,-1.07l0,0zm20.08,64.02l30.3,0c0.08,5.24 2.24,9.93 8.09,13.63l-46.48,0c4.68,-3.39 8.11,-7.51 8.09,-13.63l0,0l0,0l0,0z" class="st0"/>
   </g>
  </g>
 </g>
</svg>