<svg xmlns="http://www.w3.org/2000/svg" width="122.889" height="124.086" viewBox="0 0 122.889 124.086">
  <g id="brush-pencil" transform="translate(-0.001 -0.002)">
    <path id="Path_52" data-name="Path 52" d="M105.28,6.06l14.38,14.38a4.992,4.992,0,0,1,0,7.03L108.63,38.5,87.22,17.1,98.26,6.06a4.979,4.979,0,0,1,7.02,0ZM30.9,16.9,54.2,50.11,83.03,21.28l21.4,21.41L71.86,75.27l15.23,21.7L76.6,104.56,60.56,86.58l-23.5,23.5a4.979,4.979,0,0,1-7.02,0L15.65,95.7a4.992,4.992,0,0,1,0-7.03L40.37,63.95,6.05,25.48C-9.46,7.88,7.03-17.13,30.9,16.9ZM8.95,94.84l21.5,21.49L6.03,120.36,8.95,94.84Zm75.52,9.63c8.47-6.26,14.43-5.63,17.78,1.55.79,1.7,3.2,8.98,8.16,12.96,4.87,3.91,12.48,4.45,12.48,4.69-11.92,1.11-60.86,1.51-38.42-19.2Z" fill="#fff" fill-rule="evenodd"/>
  </g>
</svg>
